<svg width="364.46251220703124px" height="219.24004516601562px" xmlns="http://www.w3.org/2000/svg" viewBox="67.76874389648438 -34.62002258300781 364.46251220703124 219.24004516601562" style="background: none;" preserveAspectRatio="xMidYMid"><defs><filter id="editing-hole" x="-100%" y="-100%" width="300%" height="300%"><feFlood flood-color="#dce4eb" result="black"></feFlood><feMorphology operator="dilate" radius="2" in="SourceGraphic" result="erode"></feMorphology><feGaussianBlur in="erode" stdDeviation="4" result="blur"></feGaussianBlur><feOffset in="blur" dx="2" dy="2" result="offset"></feOffset><feComposite operator="atop" in="offset" in2="black" result="merge"></feComposite><feComposite operator="in" in="merge" in2="SourceGraphic" result="inner-shadow"></feComposite></filter></defs><g filter="url(#editing-hole)"><g transform="translate(122.75499773025513, 111.54187393188477)"><path d="M34.72-34.67L15.19-34.67L15.19-7.32L34.72-7.32L34.72-7.32Q43.02-7.32 47.17-10.74L47.17-10.74L47.17-10.74Q51.32-14.16 51.32-21.00L51.32-21.00L51.32-21.00Q51.32-27.83 47.17-31.25L47.17-31.25L47.17-31.25Q43.02-34.67 34.72-34.67L34.72-34.67ZM15.19-41.99L32.28-41.99L32.28-41.99Q40.58-41.99 44.73-44.97L44.73-44.97L44.73-44.97Q48.88-48.00 48.88-53.96L48.88-53.96L48.88-53.96Q48.88-59.96 44.73-62.94L44.73-62.94L44.73-62.94Q40.58-65.92 32.28-65.92L32.28-65.92L15.19-65.92L15.19-41.99ZM7.86 0L7.86-73.24L32.28-73.24L32.28-73.24Q44.24-73.24 50.24-68.41L50.24-68.41L50.24-68.41Q56.20-63.62 56.20-53.96L56.20-53.96L56.20-53.96Q56.20-48.88 54.54-45.12L54.54-45.12L54.54-45.12Q52.88-41.36 49.51-38.92L49.51-38.92L49.51-38.92Q54.10-36.47 56.35-31.98L56.35-31.98L56.35-31.98Q58.64-27.49 58.64-21.00L58.64-21.00L58.64-21.00Q58.64-10.50 52.69-5.27L52.69-5.27L52.69-5.27Q46.68 0 34.72 0L34.72 0L7.86 0ZM111.13-26.61L72.07-26.61L72.07-26.61Q72.31-16.94 75.88-12.30L75.88-12.30L75.88-12.30Q79.64-7.32 87.94-7.32L87.94-7.32L87.94-7.32Q96.24-7.32 100.05-12.30L100.05-12.30L100.05-12.30Q101.56-14.31 102.49-17.24L102.49-17.24L110.11-17.24L110.11-17.24Q108.69-10.99 105.37-6.98L105.37-6.98L105.37-6.98Q99.56 0 87.94 0L87.94 0L87.94 0Q76.37 0 70.56-6.96L70.56-6.96L70.56-6.96Q64.75-13.92 64.75-27.83L64.75-27.83L64.75-27.83Q64.75-41.75 70.56-48.71L70.56-48.71L70.56-48.71Q76.37-55.66 87.94-55.66L87.94-55.66L87.94-55.66Q99.56-55.66 105.35-48.71L105.35-48.71L105.35-48.71Q111.13-41.75 111.13-27.83L111.13-27.83L111.13-26.61ZM72.46-33.94L103.42-33.94L103.42-33.94Q102.64-40.04 100.05-43.41L100.05-43.41L100.05-43.41Q96.24-48.34 87.94-48.34L87.94-48.34L87.94-48.34Q79.64-48.34 75.88-43.41L75.88-43.41L75.88-43.41Q73.24-40.04 72.46-33.94L72.46-33.94ZM154.25-17.82L154.25-30.27L154.25-30.27Q150-28.52 143.26-27.59L143.26-27.59L143.26-27.59Q134.13-26.32 129.54-23.34L129.54-23.34L129.54-23.34Q124.95-20.36 124.95-15.67L124.95-15.67L124.95-15.67Q124.95-11.52 127.64-9.42L127.64-9.42L127.64-9.42Q130.32-7.32 135.69-7.32L135.69-7.32L135.69-7.32Q140.92-7.32 145.56-9.96L145.56-9.96L145.56-9.96Q150.20-12.60 154.25-17.82L154.25-17.82ZM124.95-41.50L117.63-41.50L117.63-41.50Q117.63-48.58 123.14-52.15L123.14-52.15L123.14-52.15Q128.61-55.66 139.60-55.66L139.60-55.66L139.60-55.66Q150.59-55.66 156.10-51.90L156.10-51.90L156.10-51.90Q161.57-48.10 161.57-40.53L161.57-40.53L161.57 0L154.25 0L154.25-9.08L154.25-9.08Q150.20-4.54 145.56-2.29L145.56-2.29L145.56-2.29Q140.92 0 135.69 0L135.69 0L135.69 0Q126.66 0 122.17-3.91L122.17-3.91L122.17-3.91Q117.63-7.86 117.63-15.67L117.63-15.67L117.63-15.67Q117.63-23.29 123.73-27.88L123.73-27.88L123.73-27.88Q129.79-32.52 141.94-34.08L141.94-34.08L141.94-34.08Q154.25-35.74 154.25-38.57L154.25-38.57L154.25-40.53L154.25-40.53Q154.25-44.43 150.59-46.39L150.59-46.39L150.59-46.39Q146.92-48.34 139.60-48.34L139.60-48.34L139.60-48.34Q132.28-48.34 128.61-46.63L128.61-46.63L128.61-46.63Q124.95-44.92 124.95-41.50L124.95-41.50ZM214.89-34.18L214.89-34.18L214.89 0L207.57 0L207.57-34.67L207.57-34.67Q207.57-48.34 196.83-48.34L196.83-48.34L196.83-48.34Q190.14-48.34 186.65-42.43L186.65-42.43L186.65-42.43Q183.15-36.52 183.15-34.18L183.15-34.18L183.15 0L175.83 0L175.83-55.66L183.15-55.66L183.15-46.04L183.15-46.04Q189.79-55.66 198.29-55.66L198.29-55.66L198.29-55.66Q210.35-55.66 213.62-44.34L213.62-44.34L214.89-46.04L214.89-46.04Q221.53-55.66 230.03-55.66L230.03-55.66L230.03-55.66Q246.63-55.66 246.63-34.18L246.63-34.18L246.63 0L239.31 0L239.31-34.67L239.31-34.67Q239.31-48.34 228.56-48.34L228.56-48.34L228.56-48.34Q221.88-48.34 218.38-42.43L218.38-42.43L218.38-42.43Q214.89-36.52 214.89-34.18Z" fill="#dbecfa"></path></g></g><style>text {
  font-size: 64px;
  font-family: Arial Black;
  dominant-baseline: central;
  text-anchor: middle;
}</style></svg>